<?xml version="1.0" encoding="iso-8859-1"?>
<!-- Generator: Adobe Illustrator 19.0.0, SVG Export Plug-In . SVG Version: 6.00 Build 0)  -->
<svg version="1.1" id="Layer_1" xmlns="http://www.w3.org/2000/svg" xmlns:xlink="http://www.w3.org/1999/xlink" x="0px" y="0px"
	 viewBox="0 0 512.004 512.004" style="enable-background:new 0 0 512.004 512.004;" xml:space="preserve">
<g>
	<path style="fill:#B27214;" d="M393.913,401.319c9.545,0,17.275,7.741,17.275,17.275c0,9.545-7.73,17.275-17.275,17.275
		s-17.275-7.73-17.275-17.275C376.638,409.06,384.368,401.319,393.913,401.319z"/>
	<path style="fill:#B27214;" d="M122.492,354.916c11.478,0,20.788,9.311,20.788,20.788c0,11.478-9.311,20.788-20.788,20.788
		s-20.788-9.311-20.788-20.788C101.703,364.227,111.014,354.916,122.492,354.916z"/>
	<path style="fill:#B27214;" d="M371.215,489.075c0,5.095-1.253,9.908-3.467,14.136H137.705c-0.96-3.232-1.476-6.676-1.476-10.213
		c0-20.133,16.315-36.435,36.447-36.435c3.654,0,7.179,0.539,10.505,1.534c10.857,3.268,19.582,11.466,23.576,21.995
		c4.544-8.011,13.152-13.433,23.037-13.433c7.941,0,15.05,3.502,19.91,9.03c6.16-11.396,18.212-19.125,32.079-19.125
		c13.539,0,25.333,7.378,31.622,18.352c3.455-6.594,9.217-11.782,16.233-14.464c3.385-1.3,7.074-2.014,10.927-2.014
		C357.489,458.437,371.215,472.152,371.215,489.075z"/>
</g>
<path style="fill:#9AD14B;" d="M421.108,156.987c0,4.287-1.218,8.608-3.736,12.403l-48.463,73.257
	c-16.139,24.396-28.19,51.145-35.803,79.195c-1.066,3.947-2.588,86.222-3.467,138.597v0.012c-7.015,2.682-12.778,7.87-16.233,14.464
	c-6.289-10.974-18.083-18.352-31.622-18.352c-13.867,0-25.918,7.73-32.079,19.125c-4.86-5.528-11.969-9.03-19.91-9.03
	c-9.885,0-18.493,5.423-23.037,13.433c-3.994-10.529-12.719-18.727-23.576-21.995l-2.178-142.439
	c-1.37-11.349-7.566-21.573-17.064-27.933c-6.875-4.591-12.567-10.904-16.549-18.352c-12.005-22.475-29.736-41.741-51.778-55.654
	l-3.209-2.026c-12.953-8.175-16.549-25.461-7.905-38.122l0.41-0.609c8.924-13.105,26.949-15.834,39.258-6.067
	c11.349,9.006,25.063,19.898,36.599,29.022c8.936,7.097,21.995-0.152,20.718-11.489L166.915,54.766
	c-1.476-13.082,7.308-25.134,20.226-27.722c1.675-0.328,3.361-0.492,4.989-0.492c12.262,0,23.119,8.924,25.063,21.515l14.031,91.27
	c0.457,2.975,4.802,2.752,4.978-0.246l5.856-104.657c0.832-14.815,13.375-26.223,28.202-25.625
	c14.651,0.597,26.094,12.66,26.094,27.125c0,0.492-0.023,0.996-0.047,1.511l-5.341,96.915c-0.293,5.282,7.144,6.746,8.866,1.733
	l21.878-63.9c4.685-13.691,20.039-20.519,33.332-14.815c9.369,4.017,15.085,13.164,15.085,22.861c0,2.588-0.398,5.2-1.241,7.765
	l-27.511,83.927c-1.944,5.914,5.633,10.201,9.709,5.516l30.544-35.206c8.233-9.487,22.651-10.4,32.008-2.003
	C418.554,144.643,421.108,150.78,421.108,156.987z"/>
<path style="fill:#90BC42;" d="M214.804,458.097c0,0-3.549,14.078-8.046,21.995c-3.994-10.529-12.719-18.727-23.576-21.995
	l-2.178-142.439c-1.37-11.349-7.566-21.573-17.064-27.933c-6.875-4.591-12.567-10.904-16.549-18.352
	c-12.005-22.475-29.736-41.741-51.778-55.654l-3.209-2.026c-12.953-8.175-16.549-25.461-7.905-38.122l0.41-0.609
	c8.69-12.754,26-15.682,38.262-6.816c-2.518,1.804-4.778,4.087-6.641,6.816l-0.41,0.609c-8.643,12.66-5.048,29.947,7.905,38.122
	l3.209,2.026c22.042,13.914,39.773,33.18,51.778,55.654c3.982,7.449,9.674,13.761,16.549,18.352
	c9.498,6.359,15.694,16.584,17.064,27.933L214.804,458.097z"/>
<g>
	<path style="fill:#333333;" d="M475.344,494.432h-95.729c0.245-1.774,0.383-3.565,0.383-5.362
		c0-21.737-17.691-39.422-39.435-39.422c-0.656,0-1.308,0.016-1.958,0.049c1.774-103.709,2.732-122.813,3.093-125.959
		c7.412-27.163,19.032-52.813,34.538-76.241l48.466-73.261c3.394-5.139,5.19-11.105,5.19-17.253c0-8.883-3.788-17.371-10.385-23.278
		c-6.287-5.643-14.393-8.459-22.829-7.936c-8.441,0.525-16.141,4.33-21.687,10.716l-20.507,23.638l22.741-69.369
		c1.122-3.403,1.691-6.94,1.691-10.511c0-13.484-8.014-25.629-20.41-30.937c-8.577-3.679-18.389-3.615-26.923,0.177
		c-8.537,3.792-15.163,11.034-18.181,19.862l-11.987,35.01l3.665-66.442c0.036-0.672,0.054-1.327,0.054-1.982
		c0-19.343-15.159-35.113-34.515-35.903c-19.515-0.785-36.236,14.428-37.331,33.913l-2.503,44.71l-4.91-31.926
		c-2.589-16.782-16.778-28.961-33.738-28.961c-2.217,0-4.473,0.225-6.72,0.671c-17.522,3.504-29.229,19.547-27.232,37.317
		l14.577,129.66c0.273,2.423-1.353,3.603-2.065,3.997c-0.882,0.488-2.636,1.09-4.48-0.371
		c-11.533-9.132-25.245-20.012-36.585-29.021c-7.767-6.165-17.839-8.847-27.641-7.356c-9.838,1.497-18.71,7.094-24.336,15.355
		l-0.415,0.609c-5.529,8.107-7.477,17.862-5.485,27.469c1.993,9.61,7.663,17.788,15.961,23.027l3.213,2.03
		c20.472,12.918,37.32,31.025,48.721,52.365c4.643,8.687,11.356,16.126,19.408,21.51c7.212,4.83,11.995,12.559,13.173,21.258
		l2.012,131.54c-0.521-0.019-1.042-0.046-1.567-0.046c-24.937,0-45.224,20.287-45.224,45.225c0,0.479,0.036,0.956,0.052,1.434
		H36.661c-4.851,0-8.784,3.933-8.784,8.784c0,4.851,3.933,8.784,8.784,8.784h438.683c4.851,0,8.784-3.933,8.784-8.784
		C484.128,498.37,480.196,494.432,475.344,494.432z M189.785,315.52c-0.005-0.308-0.026-0.616-0.063-0.922
		c-1.691-13.958-9.306-26.414-20.899-34.176c-5.665-3.788-10.397-9.04-13.683-15.189c-12.834-24.021-31.798-44.403-54.835-58.94
		l-3.21-2.028c-4.234-2.673-7.124-6.843-8.141-11.742c-1.015-4.896-0.023-9.868,2.798-14.003l0.418-0.614
		c2.931-4.305,7.357-7.103,12.46-7.88c5.064-0.769,10.062,0.561,14.075,3.745c11.345,9.012,25.064,19.898,36.597,29.03
		c1.779,1.412,9.879,5.25,11.356,5.806c7.838,2.947,16.995,4.886,26.6,6.922c33.787,7.158,68.724,14.56,71.319,64.384
		c0.244,4.689,4.123,8.327,8.764,8.327c0.153,0,0.309-0.004,0.464-0.012c4.845-0.252,8.567-4.384,8.315-9.229
		c-3.297-63.299-50.648-73.331-85.222-80.657c-3.163-0.67-6.262-1.332-9.253-2.013c2.126-3.839,3.085-8.313,2.571-12.884
		L175.641,53.789c-0.955-8.491,4.852-16.455,13.206-18.125c1.11-0.22,2.217-0.331,3.289-0.331c8.098,0,15.137,6.05,16.374,14.068
		l14.035,91.278c0.883,5.726,5.913,9.832,11.698,9.549c5.792-0.282,10.401-4.86,10.723-10.646l5.858-104.655
		c0.56-9.963,9.122-17.741,19.081-17.343c9.902,0.404,17.659,8.464,17.659,18.349c0,0.344-0.011,0.69-0.028,1.029l-5.344,96.912
		c-0.37,6.725,4.158,12.543,10.768,13.835c6.611,1.293,12.993-2.393,15.183-8.771l21.879-63.903
		c1.464-4.283,4.551-7.655,8.693-9.495c4.14-1.84,8.709-1.869,12.87-0.084c5.931,2.539,9.763,8.345,9.763,14.79
		c0,1.698-0.272,3.384-0.813,5.024l-27.512,83.924c-2.178,6.628,0.535,13.664,6.598,17.109c6.068,3.448,13.508,2.178,18.099-3.099
		l30.537-35.202c2.43-2.799,5.807-4.467,9.51-4.698c3.7-0.232,7.248,1.004,10.01,3.482c2.888,2.587,4.544,6.304,4.544,10.199
		c0,2.695-0.788,5.311-2.276,7.563l-48.461,73.254c-16.623,25.114-29.056,52.618-36.955,81.747
		c-0.522,1.93-1.491,5.51-3.685,135.326c-2.76,1.586-5.329,3.503-7.642,5.724c-8.34-8.096-19.627-12.823-31.518-12.823
		c-13.091,0-25.327,5.632-33.804,15.166c-5.439-3.276-11.715-5.06-18.184-5.06c-7.882,0-15.414,2.654-21.488,7.316
		c-4.388-5.59-10.045-10.06-16.435-13.079L189.785,315.52z M145.017,492.999c0-15.25,12.406-27.657,27.656-27.657
		c11.419,0,21.814,7.178,25.868,17.862c1.208,3.182,4.144,5.38,7.535,5.642c3.392,0.258,6.631-1.458,8.313-4.417
		c3.149-5.54,9.053-8.981,15.408-8.981c5.083,0,9.935,2.202,13.31,6.04c1.898,2.157,4.73,3.25,7.586,2.928
		c2.855-0.323,5.371-2.023,6.738-4.55c4.845-8.958,14.177-14.524,24.355-14.524c9.877,0,19.074,5.341,24.003,13.938
		c1.596,2.783,4.59,4.472,7.79,4.413c3.207-0.062,6.125-1.867,7.613-4.709c3.799-7.259,11.221-11.767,19.371-11.767
		c12.057,0,21.867,9.804,21.867,21.854c0,1.839-0.225,3.629-0.664,5.362H145.067C145.043,493.955,145.017,493.479,145.017,492.999z"
		/>
	<path style="fill:#333333;" d="M393.913,444.657c14.369,0,26.059-11.69,26.059-26.059s-11.69-26.059-26.059-26.059
		c-14.369,0-26.059,11.69-26.059,26.059S379.545,444.657,393.913,444.657z M393.913,410.107c4.682,0,8.491,3.809,8.491,8.491
		c0,4.682-3.809,8.491-8.491,8.491c-4.682,0-8.491-3.809-8.491-8.491C385.422,413.916,389.232,410.107,393.913,410.107z"/>
	<path style="fill:#333333;" d="M122.492,405.276c16.306,0,29.572-13.266,29.572-29.572s-13.266-29.572-29.572-29.572
		S92.92,359.397,92.92,375.704S106.185,405.276,122.492,405.276z M122.492,363.699c6.62,0,12.005,5.385,12.005,12.005
		s-5.385,12.005-12.005,12.005c-6.62,0-12.005-5.385-12.005-12.005S115.872,363.699,122.492,363.699z"/>
	<circle style="fill:#333333;" cx="424.661" cy="449.335" r="8.784"/>
	<circle style="fill:#333333;" cx="364.931" cy="313.478" r="8.784"/>
	<circle style="fill:#333333;" cx="92.046" cy="427.082" r="8.784"/>
	<circle style="fill:#333333;" cx="108.442" cy="281.856" r="8.784"/>
</g>
<g>
</g>
<g>
</g>
<g>
</g>
<g>
</g>
<g>
</g>
<g>
</g>
<g>
</g>
<g>
</g>
<g>
</g>
<g>
</g>
<g>
</g>
<g>
</g>
<g>
</g>
<g>
</g>
<g>
</g>
</svg>
